<svg preserveAspectRatio="none" overflow="visible" style="display: block;" width="442" height="11.547" viewBox="0 0 442 11.547" fill="none" xmlns="http://www.w3.org/2000/svg">
<path id="Vector 38" d="M1 4.7735C0.447715 4.7735 0 5.22122 0 5.7735C0 6.32579 0.447715 6.7735 1 6.7735V5.7735V4.7735ZM442 5.7735L432 0V11.547L442 5.7735ZM3.00455 6.7735H4.00455V4.7735H3.00455V5.7735V6.7735ZM7.01364 4.7735H6.01364V6.7735H7.01364V5.7735V4.7735ZM11.0227 6.7735H12.0227V4.7735H11.0227V5.7735V6.7735ZM15.0318 4.7735H14.0318V6.7735H15.0318V5.7735V4.7735ZM19.0409 6.7735H20.0409V4.7735H19.0409V5.7735V6.7735ZM23.05 4.7735H22.05V6.7735H23.05V5.7735V4.7735ZM27.0591 6.7735H28.0591V4.7735H27.0591V5.7735V6.7735ZM31.0682 4.7735H30.0682V6.7735H31.0682V5.7735V4.7735ZM35.0773 6.7735H36.0773V4.7735H35.0773V5.7735V6.7735ZM39.0864 4.7735H38.0864V6.7735H39.0864V5.7735V4.7735ZM43.0954 6.7735H44.0954V4.7735H43.0954V5.7735V6.7735ZM47.1045 4.7735H46.1045V6.7735H47.1045V5.7735V4.7735ZM51.1136 6.7735H52.1136V4.7735H51.1136V5.7735V6.7735ZM55.1227 4.7735H54.1227V6.7735H55.1227V5.7735V4.7735ZM59.1318 6.7735H60.1318V4.7735H59.1318V5.7735V6.7735ZM63.1409 4.7735H62.1409V6.7735H63.1409V5.7735V4.7735ZM67.15 6.7735H68.15V4.7735H67.15V5.7735V6.7735ZM71.1591 4.7735H70.1591V6.7735H71.1591V5.7735V4.7735ZM75.1682 6.7735H76.1682V4.7735H75.1682V5.7735V6.7735ZM79.1773 4.7735H78.1773V6.7735H79.1773V5.7735V4.7735ZM83.1864 6.7735H84.1864V4.7735H83.1864V5.7735V6.7735ZM87.1955 4.7735H86.1955V6.7735H87.1955V5.7735V4.7735ZM91.2046 6.7735H92.2046V4.7735H91.2046V5.7735V6.7735ZM95.2136 4.7735H94.2136V6.7735H95.2136V5.7735V4.7735ZM99.2227 6.7735H100.223V4.7735H99.2227V5.7735V6.7735ZM103.232 4.7735H102.232V6.7735H103.232V5.7735V4.7735ZM107.241 6.7735H108.241V4.7735H107.241V5.7735V6.7735ZM111.25 4.7735H110.25V6.7735H111.25V5.7735V4.7735ZM115.259 6.7735H116.259V4.7735H115.259V5.7735V6.7735ZM119.268 4.7735H118.268V6.7735H119.268V5.7735V4.7735ZM123.277 6.7735H124.277V4.7735H123.277V5.7735V6.7735ZM127.286 4.7735H126.286V6.7735H127.286V5.7735V4.7735ZM131.296 6.7735H132.296V4.7735H131.296V5.7735V6.7735ZM135.305 4.7735H134.305V6.7735H135.305V5.7735V4.7735ZM139.314 6.7735H140.314V4.7735H139.314V5.7735V6.7735ZM143.323 4.7735H142.323V6.7735H143.323V5.7735V4.7735ZM147.332 6.7735H148.332V4.7735H147.332V5.7735V6.7735ZM151.341 4.7735H150.341V6.7735H151.341V5.7735V4.7735ZM155.35 6.7735H156.35V4.7735H155.35V5.7735V6.7735ZM159.359 4.7735H158.359V6.7735H159.359V5.7735V4.7735ZM163.368 6.7735H164.368V4.7735H163.368V5.7735V6.7735ZM167.377 4.7735H166.377V6.7735H167.377V5.7735V4.7735ZM171.386 6.7735H172.386V4.7735H171.386V5.7735V6.7735ZM175.396 4.7735H174.396V6.7735H175.396V5.7735V4.7735ZM179.405 6.7735H180.405V4.7735H179.405V5.7735V6.7735ZM183.414 4.7735H182.414V6.7735H183.414V5.7735V4.7735ZM187.423 6.7735H188.423V4.7735H187.423V5.7735V6.7735ZM191.432 4.7735H190.432V6.7735H191.432V5.7735V4.7735ZM195.441 6.7735H196.441V4.7735H195.441V5.7735V6.7735ZM199.45 4.7735H198.45V6.7735H199.45V5.7735V4.7735ZM203.459 6.7735H204.459V4.7735H203.459V5.7735V6.7735ZM207.468 4.7735H206.468V6.7735H207.468V5.7735V4.7735ZM211.477 6.7735H212.477V4.7735H211.477V5.7735V6.7735ZM215.486 4.7735H214.486V6.7735H215.486V5.7735V4.7735ZM219.496 6.7735H220.496V4.7735H219.496V5.7735V6.7735ZM223.505 4.7735H222.505V6.7735H223.505V5.7735V4.7735ZM227.514 6.7735H228.514V4.7735H227.514V5.7735V6.7735ZM231.523 4.7735H230.523V6.7735H231.523V5.7735V4.7735ZM235.532 6.7735H236.532V4.7735H235.532V5.7735V6.7735ZM239.541 4.7735H238.541V6.7735H239.541V5.7735V4.7735ZM243.55 6.7735H244.55V4.7735H243.55V5.7735V6.7735ZM247.559 4.7735H246.559V6.7735H247.559V5.7735V4.7735ZM251.568 6.7735H252.568V4.7735H251.568V5.7735V6.7735ZM255.577 4.7735H254.577V6.7735H255.577V5.7735V4.7735ZM259.587 6.7735H260.587V4.7735H259.587V5.7735V6.7735ZM263.596 4.7735H262.596V6.7735H263.596V5.7735V4.7735ZM267.605 6.7735H268.605V4.7735H267.605V5.7735V6.7735ZM271.614 4.7735H270.614V6.7735H271.614V5.7735V4.7735ZM275.623 6.7735H276.623V4.7735H275.623V5.7735V6.7735ZM279.632 4.7735H278.632V6.7735H279.632V5.7735V4.7735ZM283.641 6.7735H284.641V4.7735H283.641V5.7735V6.7735ZM287.65 4.7735H286.65V6.7735H287.65V5.7735V4.7735ZM291.659 6.7735H292.659V4.7735H291.659V5.7735V6.7735ZM295.668 4.7735H294.668V6.7735H295.668V5.7735V4.7735ZM299.677 6.7735H300.677V4.7735H299.677V5.7735V6.7735ZM303.687 4.7735H302.687V6.7735H303.687V5.7735V4.7735ZM307.696 6.7735H308.696V4.7735H307.696V5.7735V6.7735ZM311.705 4.7735H310.705V6.7735H311.705V5.7735V4.7735ZM315.714 6.7735H316.714V4.7735H315.714V5.7735V6.7735ZM319.723 4.7735H318.723V6.7735H319.723V5.7735V4.7735ZM323.732 6.7735H324.732V4.7735H323.732V5.7735V6.7735ZM327.741 4.7735H326.741V6.7735H327.741V5.7735V4.7735ZM331.75 6.7735H332.75V4.7735H331.75V5.7735V6.7735ZM335.759 4.7735H334.759V6.7735H335.759V5.7735V4.7735ZM339.768 6.7735H340.768V4.7735H339.768V5.7735V6.7735ZM343.777 4.7735H342.777V6.7735H343.777V5.7735V4.7735ZM347.787 6.7735H348.787V4.7735H347.787V5.7735V6.7735ZM351.796 4.7735H350.796V6.7735H351.796V5.7735V4.7735ZM355.805 6.7735H356.805V4.7735H355.805V5.7735V6.7735ZM359.814 4.7735H358.814V6.7735H359.814V5.7735V4.7735ZM363.823 6.7735H364.823V4.7735H363.823V5.7735V6.7735ZM367.832 4.7735H366.832V6.7735H367.832V5.7735V4.7735ZM371.841 6.7735H372.841V4.7735H371.841V5.7735V6.7735ZM375.85 4.7735H374.85V6.7735H375.85V5.7735V4.7735ZM379.859 6.7735H380.859V4.7735H379.859V5.7735V6.7735ZM383.868 4.7735H382.868V6.7735H383.868V5.7735V4.7735ZM387.878 6.7735H388.878V4.7735H387.878V5.7735V6.7735ZM391.887 4.7735H390.887V6.7735H391.887V5.7735V4.7735ZM395.896 6.7735H396.896V4.7735H395.896V5.7735V6.7735ZM399.905 4.7735H398.905V6.7735H399.905V5.7735V4.7735ZM403.914 6.7735H404.914V4.7735H403.914V5.7735V6.7735ZM407.923 4.7735H406.923V6.7735H407.923V5.7735V4.7735ZM411.932 6.7735H412.932V4.7735H411.932V5.7735V6.7735ZM415.941 4.7735H414.941V6.7735H415.941V5.7735V4.7735ZM419.95 6.7735H420.95V4.7735H419.95V5.7735V6.7735ZM423.959 4.7735H422.959V6.7735H423.959V5.7735V4.7735ZM427.968 6.7735H428.968V4.7735H427.968V5.7735V6.7735ZM431.978 4.7735H430.978V6.7735H431.978V5.7735V4.7735ZM435.987 6.7735H436.987V4.7735H435.987V5.7735V6.7735ZM439.996 4.7735H438.996V6.7735H439.996V5.7735V4.7735ZM1 5.7735V6.7735H3.00455V5.7735V4.7735H1V5.7735ZM7.01364 5.7735V6.7735H11.0227V5.7735V4.7735H7.01364V5.7735ZM15.0318 5.7735V6.7735H19.0409V5.7735V4.7735H15.0318V5.7735ZM23.05 5.7735V6.7735H27.0591V5.7735V4.7735H23.05V5.7735ZM31.0682 5.7735V6.7735H35.0773V5.7735V4.7735H31.0682V5.7735ZM39.0864 5.7735V6.7735H43.0954V5.7735V4.7735H39.0864V5.7735ZM47.1045 5.7735V6.7735H51.1136V5.7735V4.7735H47.1045V5.7735ZM55.1227 5.7735V6.7735H59.1318V5.7735V4.7735H55.1227V5.7735ZM63.1409 5.7735V6.7735H67.15V5.7735V4.7735H63.1409V5.7735ZM71.1591 5.7735V6.7735H75.1682V5.7735V4.7735H71.1591V5.7735ZM79.1773 5.7735V6.7735H83.1864V5.7735V4.7735H79.1773V5.7735ZM87.1955 5.7735V6.7735H91.2046V5.7735V4.7735H87.1955V5.7735ZM95.2136 5.7735V6.7735H99.2227V5.7735V4.7735H95.2136V5.7735ZM103.232 5.7735V6.7735H107.241V5.7735V4.7735H103.232V5.7735ZM111.25 5.7735V6.7735H115.259V5.7735V4.7735H111.25V5.7735ZM119.268 5.7735V6.7735H123.277V5.7735V4.7735H119.268V5.7735ZM127.286 5.7735V6.7735H131.296V5.7735V4.7735H127.286V5.7735ZM135.305 5.7735V6.7735H139.314V5.7735V4.7735H135.305V5.7735ZM143.323 5.7735V6.7735H147.332V5.7735V4.7735H143.323V5.7735ZM151.341 5.7735V6.7735H155.35V5.7735V4.7735H151.341V5.7735ZM159.359 5.7735V6.7735H163.368V5.7735V4.7735H159.359V5.7735ZM167.377 5.7735V6.7735H171.386V5.7735V4.7735H167.377V5.7735ZM175.396 5.7735V6.7735H179.405V5.7735V4.7735H175.396V5.7735ZM183.414 5.7735V6.7735H187.423V5.7735V4.7735H183.414V5.7735ZM191.432 5.7735V6.7735H195.441V5.7735V4.7735H191.432V5.7735ZM199.45 5.7735V6.7735H203.459V5.7735V4.7735H199.45V5.7735ZM207.468 5.7735V6.7735H211.477V5.7735V4.7735H207.468V5.7735ZM215.486 5.7735V6.7735H219.496V5.7735V4.7735H215.486V5.7735ZM223.505 5.7735V6.7735H227.514V5.7735V4.7735H223.505V5.7735ZM231.523 5.7735V6.7735H235.532V5.7735V4.7735H231.523V5.7735ZM239.541 5.7735V6.7735H243.55V5.7735V4.7735H239.541V5.7735ZM247.559 5.7735V6.7735H251.568V5.7735V4.7735H247.559V5.7735ZM255.577 5.7735V6.7735H259.587V5.7735V4.7735H255.577V5.7735ZM263.596 5.7735V6.7735H267.605V5.7735V4.7735H263.596V5.7735ZM271.614 5.7735V6.7735H275.623V5.7735V4.7735H271.614V5.7735ZM279.632 5.7735V6.7735H283.641V5.7735V4.7735H279.632V5.7735ZM287.65 5.7735V6.7735H291.659V5.7735V4.7735H287.65V5.7735ZM295.668 5.7735V6.7735H299.677V5.7735V4.7735H295.668V5.7735ZM303.687 5.7735V6.7735H307.696V5.7735V4.7735H303.687V5.7735ZM311.705 5.7735V6.7735H315.714V5.7735V4.7735H311.705V5.7735ZM319.723 5.7735V6.7735H323.732V5.7735V4.7735H319.723V5.7735ZM327.741 5.7735V6.7735H331.75V5.7735V4.7735H327.741V5.7735ZM335.759 5.7735V6.7735H339.768V5.7735V4.7735H335.759V5.7735ZM343.777 5.7735V6.7735H347.787V5.7735V4.7735H343.777V5.7735ZM351.796 5.7735V6.7735H355.805V5.7735V4.7735H351.796V5.7735ZM359.814 5.7735V6.7735H363.823V5.7735V4.7735H359.814V5.7735ZM367.832 5.7735V6.7735H371.841V5.7735V4.7735H367.832V5.7735ZM375.85 5.7735V6.7735H379.859V5.7735V4.7735H375.85V5.7735ZM383.868 5.7735V6.7735H387.878V5.7735V4.7735H383.868V5.7735ZM391.887 5.7735V6.7735H395.896V5.7735V4.7735H391.887V5.7735ZM399.905 5.7735V6.7735H403.914V5.7735V4.7735H399.905V5.7735ZM407.923 5.7735V6.7735H411.932V5.7735V4.7735H407.923V5.7735ZM415.941 5.7735V6.7735H419.95V5.7735V4.7735H415.941V5.7735ZM423.959 5.7735V6.7735H427.968V5.7735V4.7735H423.959V5.7735ZM431.978 5.7735V6.7735H435.987V5.7735V4.7735H431.978V5.7735Z" fill="black"/>
</svg>
